HIERARCHY
ROOT Hips
{
	OFFSET 9.372200 17.319796 17.869305
	CHANNELS 6 Xposition Yposition Zposition Xrotation Yrotation Zrotation
	JOINT LHipJoint
	{
		OFFSET 0.000000 0.000000 -0.000002
		CHANNELS 6 Xposition Yposition Zposition Xrotation Yrotation Zrotation
		JOINT LeftUpLeg
		{
			OFFSET 1.013818 0.082737 -0.080866
			CHANNELS 6 Xposition Yposition Zposition Xrotation Yrotation Zrotation
			JOINT LeftLeg
			{
				OFFSET 0.411019 -0.324488 -3.909500
				CHANNELS 6 Xposition Yposition Zposition Xrotation Yrotation Zrotation
				JOINT LeftFoot
				{
					OFFSET 0.380987 0.146996 -4.055529
					CHANNELS 6 Xposition Yposition Zposition Xrotation Yrotation Zrotation
					JOINT LeftToeBase
					{
						OFFSET 0.139586 -1.307881 -0.446151
						CHANNELS 6 Xposition Yposition Zposition Xrotation Yrotation Zrotation
						End Site
						{
							OFFSET 0.122076 -1.370759 -0.187618
						}
					}
				}
			}
		}
	}
	JOINT LowerBack
	{
		OFFSET 0.000000 0.387333 0.797709
		CHANNELS 6 Xposition Yposition Zposition Xrotation Yrotation Zrotation
		JOINT Spine
		{
			OFFSET 0.000000 -0.171494 1.413134
			CHANNELS 6 Xposition Yposition Zposition Xrotation Yrotation Zrotation
			JOINT Spine1
			{
				OFFSET 0.000000 0.103199 1.439190
				CHANNELS 6 Xposition Yposition Zposition Xrotation Yrotation Zrotation
				JOINT LeftShoulder
				{
					OFFSET 0.227362 -0.403208 1.038218
					CHANNELS 6 Xposition Yposition Zposition Xrotation Yrotation Zrotation
					JOINT LeftArm
					{
						OFFSET 1.473034 0.023096 -0.226677
						CHANNELS 6 Xposition Yposition Zposition Xrotation Yrotation Zrotation
						JOINT LeftForeArm
						{
							OFFSET 1.613113 -0.008150 -1.805944
							CHANNELS 6 Xposition Yposition Zposition Xrotation Yrotation Zrotation
							JOINT LeftHand
							{
								OFFSET 1.219654 -1.631788 -1.242294
								CHANNELS 6 Xposition Yposition Zposition Xrotation Yrotation Zrotation
								JOINT LThumb
								{
									OFFSET 0.010973 -0.438648 -0.075336
									CHANNELS 6 Xposition Yposition Zposition Xrotation Yrotation Zrotation
									End Site
									{
										OFFSET -0.218413 -0.219176 -0.090710
									}
								}
								JOINT LeftFingerBase
								{
									OFFSET 0.107111 -0.260653 -0.156710
									CHANNELS 6 Xposition Yposition Zposition Xrotation Yrotation Zrotation
									JOINT LeftHandFinger1
									{
										OFFSET 0.170596 -0.683022 -0.249149
										CHANNELS 6 Xposition Yposition Zposition Xrotation Yrotation Zrotation
										End Site
										{
											OFFSET 0.096752 -0.598689 -0.435783
										}
									}
								}
							}
						}
					}
				}
				JOINT Neck
				{
					OFFSET 0.000000 -0.238134 1.749781
					CHANNELS 6 Xposition Yposition Zposition Xrotation Yrotation Zrotation
					JOINT Neck1
					{
						OFFSET 0.000000 -0.195871 0.504349
						CHANNELS 6 Xposition Yposition Zposition Xrotation Yrotation Zrotation
						JOINT Head
						{
							OFFSET 0.000000 -0.195871 0.504351
							CHANNELS 6 Xposition Yposition Zposition Xrotation Yrotation Zrotation
							End Site
							{
								OFFSET 0.000000 0.025324 0.540457
							}
						}
					}
				}
				JOINT RightShoulder
				{
					OFFSET -0.227362 -0.403208 1.038218
					CHANNELS 6 Xposition Yposition Zposition Xrotation Yrotation Zrotation
					JOINT RightArm
					{
						OFFSET -1.473034 0.023096 -0.226677
						CHANNELS 6 Xposition Yposition Zposition Xrotation Yrotation Zrotation
						JOINT RightForeArm
						{
							OFFSET -1.613113 -0.008150 -1.805944
							CHANNELS 6 Xposition Yposition Zposition Xrotation Yrotation Zrotation
							JOINT RightHand
							{
								OFFSET -1.219655 -1.631788 -1.242294
								CHANNELS 6 Xposition Yposition Zposition Xrotation Yrotation Zrotation
								JOINT RThumb
								{
									OFFSET -0.010973 -0.438648 -0.075336
									CHANNELS 6 Xposition Yposition Zposition Xrotation Yrotation Zrotation
									End Site
									{
										OFFSET 0.218413 -0.219176 -0.090710
									}
								}
								JOINT RightFingerBase
								{
									OFFSET -0.107111 -0.260653 -0.156710
									CHANNELS 6 Xposition Yposition Zposition Xrotation Yrotation Zrotation
									JOINT RightHandFinger1
									{
										OFFSET -0.170596 -0.683022 -0.249149
										CHANNELS 6 Xposition Yposition Zposition Xrotation Yrotation Zrotation
										End Site
										{
											OFFSET -0.096752 -0.598689 -0.435783
										}
									}
								}
							}
						}
					}
				}
			}
		}
	}
	JOINT RHipJoint
	{
		OFFSET 0.000000 0.000000 -0.000002
		CHANNELS 6 Xposition Yposition Zposition Xrotation Yrotation Zrotation
		JOINT RightUpLeg
		{
			OFFSET -1.013818 0.082737 -0.080866
			CHANNELS 6 Xposition Yposition Zposition Xrotation Yrotation Zrotation
			JOINT RightLeg
			{
				OFFSET -0.411020 -0.324488 -3.909500
				CHANNELS 6 Xposition Yposition Zposition Xrotation Yrotation Zrotation
				JOINT RightFoot
				{
					OFFSET -0.380987 0.146996 -4.055529
					CHANNELS 6 Xposition Yposition Zposition Xrotation Yrotation Zrotation
					JOINT RightToeBase
					{
						OFFSET -0.139586 -1.307881 -0.446151
						CHANNELS 6 Xposition Yposition Zposition Xrotation Yrotation Zrotation
						End Site
						{
							OFFSET -0.122077 -1.370759 -0.187618
						}
					}
				}
			}
		}
	}
}
MOTION
Frames: 4
Frame Time: 0.041667
9.484198 18.094997 17.836805 4.474486 5.507805 -2.742627 0.000001 -0.000000 0.000001 -0.000007 -0.000003 -0.000006 1.013817 0.082735 -0.080868 -14.218072 10.450965 0.309716 0.411017 -0.324488 -3.909497 30.397596 2.890816 10.612626 0.380987 0.146999 -4.055530 -17.354462 0.587195 -5.050128 0.139586 -1.307882 -0.446151 -3.746235 0.044551 -1.362693 0.000001 0.387330 0.797711 14.338413 -2.368662 1.393576 0.000001 -0.171496 1.413133 2.686703 -3.620839 1.789374 -0.000001 0.103199 1.439189 -5.233396 -2.172092 0.577527 0.227361 -0.403211 1.038214 0.000003 -0.000001 -0.000000 1.473034 0.023099 -0.226678 68.354430 60.712390 -68.232422 1.613116 -0.008146 -1.805946 -40.372190 -28.307769 -111.105437 1.219658 -1.631790 -1.242291 -9.533204 0.000009 0.000016 0.010978 -0.438644 -0.075338 -4.309694 -5.815259 8.358937 0.107115 -0.260652 -0.156708 -13.782331 -31.454971 -25.176994 0.170598 -0.683024 -0.249147 0.000004 7.124997 0.000006 -0.000001 -0.238133 1.749779 -6.113916 7.518842 -2.967987 -0.000001 -0.195868 0.504348 -0.068471 -6.822673 -4.648135 0.000002 -0.195873 0.504349 1.416816 -3.392141 -2.138329 -0.227362 -0.403209 1.038212 -0.000001 0.000003 0.000000 -1.473033 0.023096 -0.226677 63.330463 -61.617076 70.226543 -1.613114 -0.008150 -1.805945 -38.162487 28.968130 106.496917 -1.219651 -1.631790 -1.242300 -15.096912 0.000013 -0.000018 -0.010973 -0.438642 -0.075339 0.683898 -4.647239 -36.618615 -0.107110 -0.260649 -0.156703 2.665780 21.544792 -7.225856 -0.170593 -0.683022 -0.249147 -0.000004 -7.124995 0.000002 0.000001 -0.000000 -0.000000 -0.000004 0.000000 0.000003 -1.013816 0.082739 -0.080863 -13.382477 -24.591036 -0.989262 -0.411020 -0.324486 -3.909499 29.590022 -2.741519 -10.353793 -0.380990 0.146997 -4.055531 -17.890091 1.978847 -3.843580 -0.139585 -1.307881 -0.446151 5.907564 -0.110751 -2.146895 
9.485399 18.093498 17.842300 4.533583 5.544148 -2.750485 0.000001 -0.000002 -0.000001 -0.000007 -0.000002 -0.000006 1.013819 0.082734 -0.080865 -14.318993 10.407029 0.291972 0.411016 -0.324485 -3.909501 30.436969 2.898162 10.625117 0.380988 0.147001 -4.055529 -17.344992 0.575419 -5.010783 0.139587 -1.307883 -0.446150 -3.754528 0.044740 -1.365692 -0.000000 0.387330 0.797707 14.443258 -2.363725 1.391925 0.000001 -0.171491 1.413136 2.704756 -3.664554 1.792100 0.000001 0.103199 1.439190 -5.273494 -2.220462 0.571281 0.227362 -0.403209 1.038215 -0.000001 -0.000002 0.000000 1.473034 0.023095 -0.226677 68.247496 60.706646 -68.212293 1.613119 -0.008150 -1.805943 -40.401279 -28.297793 -111.166807 1.219659 -1.631784 -1.242293 -9.630809 0.000015 0.000010 0.010979 -0.438646 -0.075335 -4.335305 -5.825616 8.244720 0.107114 -0.260655 -0.156705 -13.860816 -31.450374 -25.310395 0.170599 -0.683020 -0.249149 -0.000003 7.124999 0.000010 0.000001 -0.238132 1.749785 -6.212176 7.538376 -2.991580 0.000000 -0.195866 0.504349 -0.168343 -6.835190 -4.700557 -0.000001 -0.195870 0.504350 1.405989 -3.398585 -2.157106 -0.227361 -0.403209 1.038212 -0.000002 0.000004 -0.000001 -1.473036 0.023097 -0.226674 63.249560 -61.632895 70.275468 -1.613113 -0.008152 -1.805946 -38.368219 28.914038 106.922063 -1.219651 -1.631796 -1.242294 -15.094103 0.000014 -0.000017 -0.010975 -0.438646 -0.075343 0.729784 -5.140443 -36.908481 -0.107110 -0.260651 -0.156707 2.714331 21.022344 -7.528520 -0.170594 -0.683023 -0.249145 0.000005 -7.124988 -0.000003 0.000001 0.000001 -0.000001 -0.000002 0.000001 0.000003 -1.013817 0.082740 -0.080869 -13.421261 -24.633173 -0.969118 -0.411021 -0.324485 -3.909499 29.568405 -2.737552 -10.346751 -0.380988 0.146996 -4.055532 -17.913985 1.942077 -3.688338 -0.139585 -1.307884 -0.446152 6.558139 -0.136539 -2.382381 
9.487798 18.089195 17.846302 4.567290 5.535153 -2.740615 0.000001 0.000000 -0.000002 -0.000010 -0.000002 -0.000005 1.013817 0.082736 -0.080868 -14.328873 10.439964 0.291219 0.411016 -0.324487 -3.909502 30.399984 2.891199 10.613364 0.380987 0.146997 -4.055531 -17.359868 0.530947 -4.865326 0.139585 -1.307880 -0.446149 -4.524030 0.064993 -1.645087 -0.000001 0.387334 0.797704 14.511008 -2.384219 1.377822 0.000001 -0.171492 1.413135 2.759752 -3.650828 1.768407 0.000001 0.103199 1.439194 -5.250823 -2.199792 0.560581 0.227361 -0.403213 1.038215 0.000004 -0.000002 0.000000 1.473034 0.023098 -0.226674 68.000981 60.700902 -68.194815 1.613115 -0.008146 -1.805943 -40.378548 -28.305516 -111.118818 1.219659 -1.631783 -1.242298 -9.598907 0.000007 0.000013 0.010979 -0.438647 -0.075338 -4.259425 -5.750948 8.377784 0.107115 -0.260654 -0.156708 -13.733738 -31.381250 -25.142398 0.170598 -0.683020 -0.249143 -0.000004 7.124997 0.000009 0.000003 -0.238134 1.749781 -6.414160 7.464961 -3.008322 0.000000 -0.195871 0.504344 -0.187586 -6.796594 -4.740027 -0.000000 -0.195868 0.504349 1.434554 -3.366162 -2.171954 -0.227361 -0.403212 1.038212 0.000001 0.000004 -0.000001 -1.473032 0.023098 -0.226680 63.254136 -61.633851 70.442207 -1.613111 -0.008149 -1.805947 -38.591890 28.853554 107.385163 -1.219653 -1.631791 -1.242293 -15.200000 0.000015 -0.000014 -0.010977 -0.438650 -0.075341 0.738906 -5.318383 -37.078700 -0.107114 -0.260653 -0.156707 2.755523 20.831792 -7.707646 -0.170598 -0.683021 -0.249148 0.000006 -7.124993 -0.000002 -0.000000 0.000002 -0.000001 -0.000005 0.000000 0.000003 -1.013814 0.082738 -0.080867 -13.422926 -24.604085 -0.963136 -0.411023 -0.324485 -3.909501 29.548672 -2.733950 -10.340415 -0.380988 0.146995 -4.055531 -17.945789 1.925304 -3.604512 -0.139586 -1.307881 -0.446151 6.706746 -0.142763 -2.436193 
9.495399 18.082697 17.847303 4.547278 5.397877 -2.663443 0.000001 -0.000002 -0.000002 -0.000008 -0.000003 -0.000007 1.013818 0.082743 -0.080866 -14.218314 10.653727 0.280384 0.411016 -0.324486 -3.909499 30.289280 2.870553 10.578007 0.380987 0.146998 -4.055529 -17.332570 0.502589 -4.769749 0.139586 -1.307881 -0.446150 -4.845203 0.074504 -1.761691 0.000001 0.387329 0.797708 14.517504 -2.316028 1.323206 0.000000 -0.171496 1.413134 2.693935 -3.624001 1.704996 -0.000001 0.103199 1.439193 -5.324473 -2.220252 0.528194 0.227361 -0.403215 1.038216 0.000003 -0.000002 -0.000000 1.473035 0.023095 -0.226677 68.128398 60.650673 -68.208755 1.613116 -0.008148 -1.805945 -40.371165 -28.308067 -111.103170 1.219657 -1.631785 -1.242296 -9.569399 0.000004 0.000013 0.010978 -0.438646 -0.075334 -4.154052 -5.690351 8.777129 0.107117 -0.260656 -0.156708 -13.446949 -31.368187 -24.670915 0.170600 -0.683021 -0.249147 -0.000003 7.125002 0.000009 0.000002 -0.238134 1.749784 -5.909647 7.297185 -3.056492 0.000000 -0.195867 0.504351 -0.368618 -6.617725 -4.748281 0.000001 -0.195872 0.504350 1.274502 -3.284309 -2.187333 -0.227361 -0.403210 1.038211 0.000004 0.000003 -0.000000 -1.473030 0.023098 -0.226678 63.482490 -61.567878 70.492265 -1.613116 -0.008147 -1.805945 -38.767672 28.804813 107.749677 -1.219653 -1.631794 -1.242297 -15.287599 0.000015 -0.000014 -0.010973 -0.438651 -0.075339 0.671390 -4.861940 -37.127969 -0.107112 -0.260658 -0.156705 2.836955 21.303659 -7.767050 -0.170594 -0.683020 -0.249148 0.000001 -7.124996 -0.000001 0.000002 -0.000002 0.000001 -0.000005 0.000000 0.000001 -1.013817 0.082736 -0.080868 -13.403399 -24.364185 -1.097087 -0.411020 -0.324486 -3.909498 29.538181 -2.732089 -10.337071 -0.380990 0.147000 -4.055530 -17.876500 1.899447 -3.550821 -0.139585 -1.307880 -0.446150 6.397043 -0.129887 -2.324089 
